<?xml version="1.0" standalone="no"?>
<!DOCTYPE svg PUBLIC "-//W3C//DTD SVG 20010904//EN"
 "http://www.w3.org/TR/2001/REC-SVG-20010904/DTD/svg10.dtd">
<svg version="1.0" xmlns="http://www.w3.org/2000/svg"
 width="840.000000pt" height="669.000000pt" viewBox="0 0 840.000000 669.000000"
 preserveAspectRatio="xMidYMid meet">

<g transform="translate(0.000000,669.000000) scale(0.100000,-0.100000)"
fill="#000000" stroke="none">
<path d="M4145 6271 c-71 -33 -75 -48 -75 -311 0 -256 4 -274 63 -310 62 -38
148 -15 182 49 12 25 15 72 15 262 0 215 -1 234 -20 264 -12 20 -37 39 -60 49
-50 20 -56 20 -105 -3z"/>
<path d="M2211 5752 c-50 -25 -74 -63 -74 -114 0 -36 17 -72 107 -228 120
-206 134 -224 183 -241 48 -15 117 11 144 55 38 63 29 96 -87 297 -118 205
-126 216 -171 235 -42 18 -61 18 -102 -4z"/>
<path d="M6085 5756 c-44 -19 -53 -32 -169 -235 -116 -201 -125 -234 -87 -297
27 -44 96 -70 144 -55 49 17 64 36 183 241 89 154 107 192 107 227 1 92 -96
157 -178 119z"/>
<path d="M795 4340 c-40 -16 -68 -58 -72 -107 -8 -79 14 -100 231 -224 104
-60 204 -111 222 -115 42 -8 101 20 125 60 35 57 18 142 -35 176 -11 8 -102
60 -200 117 -183 105 -215 116 -271 93z"/>
<path d="M7316 4237 c-212 -121 -236 -142 -236 -212 0 -78 73 -144 144 -131
54 10 408 219 434 256 41 61 17 154 -48 187 -57 29 -88 18 -294 -100z"/>
<path d="M2159 4247 c-45 -30 -73 -87 -64 -133 13 -71 38 -86 348 -208 159
-63 291 -116 293 -119 3 -3 16 -63 29 -134 13 -70 101 -549 194 -1063 105
-573 177 -948 188 -969 25 -48 59 -70 124 -79 l56 -7 -75 -205 c-40 -113 -74
-220 -74 -239 0 -38 27 -80 63 -98 13 -7 52 -13 86 -13 l62 0 -35 -51 c-75
-112 -86 -270 -26 -391 121 -247 442 -309 640 -124 97 90 147 235 124 357 -11
59 -46 143 -78 186 l-16 23 436 0 c240 0 436 -2 436 -5 0 -2 -11 -20 -25 -40
-95 -141 -89 -333 15 -471 170 -226 521 -206 668 38 46 78 67 183 52 268 -11
63 -47 149 -76 181 -8 8 -14 19 -14 22 0 4 32 7 70 7 82 0 123 17 145 60 21
41 19 83 -7 115 -45 57 5 55 -1168 55 -594 0 -1080 1 -1080 3 0 1 27 74 59
162 l58 160 1039 5 c969 5 1041 6 1071 23 43 23 50 37 128 282 37 116 165 517
286 892 120 374 219 691 219 703 0 33 -38 95 -70 114 -30 17 -19 17 -1400 76
-261 11 -626 27 -810 35 -478 21 -499 21 -537 1 -91 -47 -94 -178 -5 -230 37
-21 35 -21 757 -51 361 -15 681 -29 1390 -60 192 -9 350 -17 351 -18 1 -1 -23
-78 -53 -172 -30 -93 -69 -217 -88 -275 -229 -718 -329 -1027 -338 -1037 -7
-10 -233 -13 -1068 -13 -999 0 -1058 1 -1063 18 -3 9 -48 253 -101 542 -206
1125 -285 1549 -294 1571 -14 37 -50 64 -121 92 -78 31 -308 121 -480 188 -69
27 -139 49 -156 49 -17 0 -46 -10 -65 -23z m1609 -3376 c69 -36 102 -88 102
-162 0 -135 -134 -218 -258 -158 -131 64 -131 253 0 318 53 26 107 27 156 2z
m1479 4 c48 -20 71 -41 94 -87 65 -128 -52 -281 -195 -254 -86 16 -151 102
-143 188 11 123 133 199 244 153z"/>
<path d="M271 2402 c-85 -46 -93 -160 -15 -221 25 -20 38 -21 269 -21 236 0
243 1 276 23 60 40 73 124 27 183 -39 49 -69 54 -305 54 -192 0 -222 -2 -252
-18z"/>
<path d="M7624 2406 c-37 -16 -70 -57 -79 -95 -9 -43 15 -102 54 -128 33 -22
40 -23 276 -23 231 0 244 1 269 21 56 44 70 108 38 168 -35 66 -59 71 -307 71
-161 -1 -228 -4 -251 -14z"/>
</g>
</svg>
