<?xml version="1.0" standalone="no"?>
<!DOCTYPE svg PUBLIC "-//W3C//DTD SVG 20010904//EN"
 "http://www.w3.org/TR/2001/REC-SVG-20010904/DTD/svg10.dtd">
<svg version="1.0" xmlns="http://www.w3.org/2000/svg"
 width="980.000000pt" height="980.000000pt" viewBox="0 0 980.000000 980.000000"
 preserveAspectRatio="xMidYMid meet">

<g transform="translate(0.000000,980.000000) scale(0.100000,-0.100000)"
fill="#000000" stroke="none">
<path d="M22 9777 l-22 -23 0 -2855 0 -2854 25 -54 c182 -390 1481 -697 3425
-811 421 -25 641 -31 1215 -37 1116 -10 2063 38 2980 153 1233 155 1994 403
2130 695 l25 54 0 2856 0 2856 -23 21 -23 22 -4855 0 -4856 0 -21 -23z m398
-322 c5 -172 8 -197 32 -263 34 -95 74 -155 151 -229 69 -66 169 -122 257
-144 83 -20 222 -15 303 11 179 56 318 192 379 368 19 57 23 94 28 257 l5 190
70 0 70 0 6 -185 c7 -206 17 -252 74 -358 158 -291 532 -385 813 -206 108 70
204 196 242 319 7 22 16 127 19 235 l6 195 70 0 70 0 6 -185 c5 -148 11 -198
27 -250 87 -271 356 -441 630 -400 216 33 381 167 462 375 21 53 24 82 29 260
l6 200 71 3 71 3 6 -183 c3 -101 11 -203 17 -228 47 -190 213 -360 405 -416
80 -23 230 -23 310 0 152 45 293 162 358 297 50 103 58 148 66 349 l6 175 49
3 c100 6 94 20 98 -205 4 -179 6 -204 28 -258 49 -126 122 -218 226 -286 276
-179 640 -95 809 186 62 104 76 167 84 375 l6 185 70 0 70 0 6 -195 c6 -211
13 -244 71 -350 47 -84 102 -145 179 -195 341 -227 793 -47 883 352 11 50 16
120 16 233 l0 161 73 -3 72 -3 5 -190 c5 -163 9 -200 28 -257 116 -337 494
-489 816 -326 118 60 235 197 278 327 18 54 22 100 27 256 l6 190 70 0 70 0 3
-165 c3 -197 -12 -287 -67 -405 -51 -107 -115 -189 -202 -259 -202 -161 -452
-204 -692 -121 -147 51 -294 167 -373 295 -20 33 -38 60 -39 60 -2 0 -21 -29
-44 -64 -48 -73 -153 -177 -227 -224 -119 -75 -297 -120 -430 -108 -240 22
-427 136 -567 345 l-35 53 -47 -71 c-59 -89 -159 -181 -252 -233 -40 -22 -73
-45 -73 -51 0 -19 157 -294 245 -428 458 -700 984 -1064 1582 -1095 206 -11
447 27 679 107 63 21 123 39 134 39 26 0 70 -43 70 -67 0 -10 -42 -86 -94
-169 -328 -524 -472 -1030 -411 -1438 40 -262 138 -453 334 -646 128 -127 272
-226 461 -316 74 -36 142 -68 150 -73 16 -9 28 -138 13 -152 -19 -18 -329 131
-481 231 -642 421 -807 1105 -470 1940 52 128 149 327 201 413 16 26 27 50 25
52 -2 2 -28 -2 -58 -11 -104 -28 -285 -55 -410 -61 -333 -15 -667 74 -979 263
-403 245 -798 710 -1110 1309 l-31 60 -117 1 c-89 0 -137 6 -196 22 -182 51
-338 167 -430 318 -17 29 -34 53 -37 54 -3 0 -18 -23 -35 -52 -69 -117 -216
-239 -355 -294 -39 -15 -70 -29 -70 -31 0 -2 38 -79 84 -172 246 -490 519
-885 821 -1186 213 -214 402 -355 624 -469 291 -148 536 -209 851 -209 258 -1
515 46 760 137 115 43 142 45 169 10 30 -38 26 -63 -20 -130 -72 -102 -184
-294 -257 -440 -148 -294 -235 -544 -289 -834 -26 -139 -25 -501 1 -620 98
-450 379 -791 860 -1045 59 -32 106 -59 104 -60 -2 -2 -77 -19 -168 -39 -1061
-232 -2499 -340 -4225 -317 -946 12 -1986 97 -2740 222 -231 38 -606 114 -633
128 -8 5 15 22 62 45 432 219 717 516 845 879 59 169 75 270 75 487 0 216 -19
355 -75 558 -93 335 -279 730 -475 1010 -60 85 -65 101 -49 140 22 52 48 51
218 -6 272 -91 475 -126 722 -126 257 0 469 42 699 138 287 121 531 291 784
548 248 252 444 515 647 867 77 135 245 463 245 480 0 5 -15 11 -32 15 -18 3
-74 27 -124 51 -110 55 -221 153 -279 249 -22 36 -42 65 -45 66 -3 0 -18 -21
-34 -48 -76 -122 -181 -216 -311 -278 -102 -49 -176 -65 -299 -68 l-109 -2
-58 -107 c-311 -579 -681 -1011 -1081 -1259 -398 -247 -845 -323 -1303 -223
-60 14 -121 28 -134 31 -23 7 -23 5 13 -57 70 -122 149 -284 202 -417 332
-826 170 -1506 -460 -1925 -104 -70 -259 -152 -386 -205 -153 -64 -140 -67
-140 25 l0 79 108 47 c557 243 857 607 891 1085 30 408 -119 887 -425 1368
-49 76 -84 143 -84 157 0 27 41 67 67 67 8 0 74 -20 146 -44 586 -196 1099
-115 1585 249 128 95 324 289 445 440 119 147 277 385 381 575 l85 154 -67 36
c-131 68 -226 153 -297 264 -20 31 -37 56 -39 56 -2 0 -16 -21 -32 -47 -136
-238 -434 -382 -708 -344 -96 14 -199 48 -274 93 -77 46 -192 156 -242 233
-23 36 -43 65 -45 65 -1 0 -19 -27 -39 -60 -72 -116 -202 -225 -336 -281 -338
-142 -743 4 -914 330 -66 128 -79 185 -84 393 -2 104 -1 195 2 203 5 13 20 15
73 13 l68 -3 5 -190z m2289 186 c11 -7 13 -41 9 -177 -4 -141 -9 -178 -26
-224 -46 -118 -130 -205 -242 -251 -44 -18 -75 -23 -155 -23 -92 -1 -105 1
-167 31 -94 44 -160 109 -206 202 l-37 75 -3 174 c-2 95 -1 180 2 188 5 12 67
14 408 14 222 0 409 -4 417 -9z m2609 -146 c4 -225 -21 -308 -124 -410 -214
-215 -574 -139 -686 145 -18 47 -22 80 -26 223 -2 92 -1 174 2 182 5 13 59 15
418 13 l413 -3 3 -150z m2602 -15 c0 -146 -3 -179 -21 -232 -54 -161 -196
-273 -361 -285 -221 -17 -412 134 -448 353 -11 67 -14 317 -3 327 3 4 192 7
420 7 l413 0 0 -170z"/>
<path d="M4723 7080 c-12 -5 -28 -19 -36 -32 -13 -20 -121 -371 -429 -1388
-119 -394 -137 -520 -104 -740 38 -249 144 -464 318 -646 111 -116 190 -174
333 -245 449 -222 981 -141 1344 206 125 119 226 264 280 403 28 71 130 401
442 1430 95 315 96 324 45 358 -34 21 -62 14 -136 -37 -75 -51 -245 -131 -335
-157 -128 -38 -245 -54 -380 -54 -274 0 -518 74 -745 227 -202 136 -345 305
-456 540 -29 62 -59 117 -66 122 -21 17 -52 22 -75 13z m338 -1088 c122 -48
240 -136 322 -241 l49 -61 -36 -15 c-126 -53 -338 -65 -461 -27 -38 12 -99 38
-135 59 -64 37 -225 187 -249 230 -10 21 -8 24 25 38 120 50 378 59 485 17z
m1019 -311 c36 -11 94 -37 130 -58 64 -38 225 -187 249 -231 11 -20 9 -23 -16
-33 -75 -29 -149 -42 -258 -46 -180 -8 -280 23 -422 131 -60 47 -183 178 -183
196 0 8 120 44 195 59 75 15 230 6 305 -18z m-1407 -525 c87 -190 269 -358
470 -436 250 -97 552 -73 770 61 26 16 47 25 47 20 0 -13 -71 -100 -121 -147
-146 -139 -370 -211 -568 -184 -314 43 -558 272 -617 578 -13 70 -19 162 -10
162 3 0 16 -24 29 -54z"/>
<path d="M4282 6475 c-151 -114 -299 -185 -477 -230 -316 -80 -625 -45 -923
106 -126 64 -160 71 -192 37 -37 -40 -54 17 250 -783 56 -148 140 -371 187
-495 124 -331 170 -444 210 -513 116 -205 291 -375 493 -477 180 -91 349 -130
552 -129 171 1 183 5 126 46 -149 108 -337 353 -408 531 -14 34 -28 62 -31 62
-10 0 -88 -125 -118 -190 l-25 -55 -4 34 c-9 83 24 229 74 337 l24 51 -16 104
c-20 129 -13 335 15 460 11 47 49 182 85 300 226 738 262 859 257 859 -3 0
-39 -25 -79 -55z m-253 -749 c29 -8 55 -17 58 -20 8 -7 -52 -89 -114 -157
-181 -194 -401 -257 -682 -194 -39 9 -71 19 -71 21 0 19 91 132 156 194 87 83
186 141 280 165 74 18 295 14 373 -9z"/>
<path d="M3705 2968 c-41 -36 -35 -106 10 -126 36 -17 2333 -17 2368 -1 48 22
56 89 15 126 -19 17 -77 18 -1193 21 l-1174 2 -26 -22z"/>
<path d="M3545 2655 c-30 -30 -32 -64 -4 -99 l20 -26 1339 0 1339 0 20 26 c28
35 26 69 -4 99 l-24 25 -1331 0 -1331 0 -24 -25z"/>
<path d="M3390 2350 c-30 -30 -27 -83 6 -109 l27 -21 1477 0 1477 0 27 21 c33
26 36 79 6 109 -20 20 -33 20 -1510 20 -1477 0 -1490 0 -1510 -20z"/>
<path d="M1780 2056 c-135 -29 -262 -99 -357 -197 -52 -53 -108 -127 -101
-134 1 -2 27 -13 57 -25 174 -68 340 -215 430 -379 l28 -53 36 64 c117 208
348 373 580 414 20 3 37 11 37 16 0 6 -39 50 -87 97 -96 95 -196 155 -308 185
-85 23 -236 28 -315 12z"/>
<path d="M3315 2056 c-87 -16 -161 -47 -245 -101 -70 -46 -177 -151 -203 -201
l-16 -32 57 -21 c171 -65 340 -215 432 -382 l27 -51 33 56 c121 212 327 365
563 417 32 7 56 16 55 21 -7 21 -85 106 -135 148 -66 56 -178 113 -263 135
-87 23 -219 27 -305 11z"/>
<path d="M4885 2064 c-155 -25 -280 -89 -391 -199 -45 -44 -89 -94 -97 -111
l-16 -32 57 -21 c91 -33 179 -90 268 -174 78 -74 162 -184 178 -234 4 -13 11
-23 16 -23 5 0 12 10 16 23 14 47 97 157 172 229 118 112 251 184 405 218 31
7 57 16 57 19 0 3 -19 29 -42 58 -89 106 -226 194 -357 228 -66 17 -212 27
-266 19z"/>
<path d="M6415 2064 c-195 -32 -361 -134 -474 -293 l-31 -44 78 -33 c161 -70
302 -193 394 -342 l51 -82 39 71 c22 39 72 105 111 146 125 131 244 202 410
245 48 13 87 26 87 29 0 15 -74 97 -131 145 -71 60 -176 116 -264 139 -62 17
-217 27 -270 19z"/>
<path d="M7955 2064 c-11 -2 -45 -9 -75 -15 -76 -15 -203 -78 -275 -136 -53
-43 -156 -163 -155 -181 1 -4 45 -28 99 -54 166 -79 295 -199 381 -351 l33
-58 28 52 c115 209 332 371 562 419 31 6 57 15 57 20 0 20 -95 122 -157 169
-137 103 -358 162 -498 135z"/>
<path d="M954 1599 c-136 -23 -265 -91 -369 -194 -83 -83 -126 -153 -169 -272
l-31 -88 0 -503 0 -504 24 -19 c22 -18 48 -19 665 -19 l643 0 22 24 22 23 -3
509 -4 509 -27 74 c-119 324 -440 516 -773 460z"/>
<path d="M2484 1599 c-239 -40 -455 -225 -533 -457 -37 -109 -42 -197 -39
-660 l3 -444 24 -19 c22 -18 48 -19 667 -19 l643 0 21 22 c20 21 20 32 20 507
0 547 -1 557 -72 699 -69 140 -204 267 -353 329 -109 46 -259 63 -381 42z"/>
<path d="M4000 1595 c-132 -27 -246 -87 -343 -182 -68 -66 -102 -113 -144
-198 -65 -129 -66 -143 -70 -659 -3 -258 -2 -480 2 -493 3 -13 14 -32 25 -43
20 -20 36 -20 665 -20 632 0 645 0 665 20 19 19 20 33 20 508 0 450 -2 495
-19 564 -25 95 -67 180 -128 254 -60 74 -84 96 -163 148 -156 102 -331 137
-510 101z"/>
<path d="M5530 1596 c-197 -42 -382 -180 -474 -355 -74 -141 -76 -162 -76
-713 0 -475 1 -489 20 -508 20 -20 33 -20 665 -20 625 0 646 1 664 19 11 11
23 35 26 53 4 19 5 241 3 493 -5 514 -5 512 -78 660 -87 178 -249 312 -435
361 -84 22 -236 26 -315 10z"/>
<path d="M7060 1595 c-95 -21 -146 -42 -227 -91 -99 -61 -200 -172 -251 -276
-71 -142 -72 -152 -72 -699 l0 -486 23 -21 23 -22 636 0 c350 0 644 3 653 6
43 17 45 40 45 498 0 256 -4 467 -11 513 -27 198 -158 395 -330 496 -139 82
-341 116 -489 82z"/>
<path d="M8590 1595 c-227 -43 -432 -224 -514 -454 l-31 -86 -3 -504 -3 -504
22 -23 22 -24 643 0 c617 0 643 1 665 19 l24 19 3 454 c4 496 -1 552 -49 679
-118 307 -449 487 -779 424z"/>
</g>
</svg>
